<?xml version="1.0" encoding="UTF-8" standalone="no"?>
<svg
   xmlns:dc="http://purl.org/dc/elements/1.1/"
   xmlns:cc="http://creativecommons.org/ns#"
   xmlns:rdf="http://www.w3.org/1999/02/22-rdf-syntax-ns#"
   xmlns:svg="http://www.w3.org/2000/svg"
   xmlns="http://www.w3.org/2000/svg"
   xmlns:xlink="http://www.w3.org/1999/xlink"
   xmlns:sodipodi="http://sodipodi.sourceforge.net/DTD/sodipodi-0.dtd"
   xmlns:inkscape="http://www.inkscape.org/namespaces/inkscape"
   width="276.12152mm"
   height="90.712883mm"
   viewBox="0 0 276.12152 90.712883"
   version="1.1"
   id="svg8"
   inkscape:version="1.0 (4035a4fb49, 2020-05-01)"
   sodipodi:docname="bottom.svg">
  <defs
     id="defs2">
    <linearGradient
       inkscape:collect="always"
       id="linearGradient997">
      <stop
         style="stop-color:#3771c8;stop-opacity:1;"
         offset="0"
         id="stop993" />
      <stop
         style="stop-color:#002255;stop-opacity:1"
         offset="1"
         id="stop995" />
    </linearGradient>
    <rect
       id="rect51"
       height="40.181671"
       width="252.84715"
       y="72.571426"
       x="41.577381" />
    <rect
       id="rect962"
       height="40.181671"
       width="252.84715"
       y="72.571426"
       x="41.577381" />
    <linearGradient
       inkscape:collect="always"
       xlink:href="#linearGradient997"
       id="linearGradient999"
       x1="76.629715"
       y1="239.92163"
       x2="78.141617"
       y2="283.01093"
       gradientUnits="userSpaceOnUse" />
  </defs>
  <sodipodi:namedview
     id="base"
     pagecolor="#ffffff"
     bordercolor="#666666"
     borderopacity="1.0"
     inkscape:pageopacity="0.0"
     inkscape:pageshadow="2"
     inkscape:zoom="0.7"
     inkscape:cx="403.25004"
     inkscape:cy="263.16118"
     inkscape:document-units="mm"
     inkscape:current-layer="layer1"
     inkscape:document-rotation="0"
     showgrid="false"
     inkscape:window-width="1920"
     inkscape:window-height="1001"
     inkscape:window-x="-9"
     inkscape:window-y="-9"
     inkscape:window-maximized="1"
     fit-margin-top="0"
     fit-margin-left="0"
     fit-margin-right="0"
     fit-margin-bottom="0" />
  <metadata
     id="metadata5">
    <rdf:RDF>
      <cc:Work
         rdf:about="">
        <dc:format>image/svg+xml</dc:format>
        <dc:type
           rdf:resource="http://purl.org/dc/dcmitype/StillImage" />
        <dc:title />
      </cc:Work>
    </rdf:RDF>
  </metadata>
  <g
     inkscape:label="Calque 1"
     inkscape:groupmode="layer"
     id="layer1"
     transform="translate(28.447667,-196.07639)">
    <path
       style="fill:url(#linearGradient999);fill-opacity:1;stroke:none;stroke-width:0.184574px;stroke-linecap:butt;stroke-linejoin:miter;stroke-opacity:1"
       d="m 247.83401,286.81441 -275.884784,-0.10488 v -46.16981 c 41.319727,-7.60401 59.960678,-18.07107 138.320314,-9.56634 86.22313,14.78607 60.7154,7.68888 137.56447,12.95892 z"
       id="path24"
       sodipodi:nodetypes="cccccc"
       inkscape:export-xdpi="96"
       inkscape:export-ydpi="96" />
    <g
       style="font-style:normal;font-variant:normal;font-weight:normal;font-stretch:normal;font-size:19.7556px;line-height:1.25;font-family:'Berlin Sans FB Demi';-inkscape-font-specification:'Berlin Sans FB Demi, Normal';font-variant-ligatures:normal;font-variant-caps:normal;font-variant-numeric:normal;font-variant-east-asian:normal;white-space:pre;shape-inside:url(#rect51);fill:#ffffff;fill-opacity:1;stroke:none"
       id="text49"
       transform="translate(18.421382,184.29349)"
       aria-label="Thanks for coming !">
      <path
         id="path76"
         d="m 51.861069,80.635061 q 0,0.192926 -0.212218,0.192926 -0.366559,0 -2.903533,-0.144694 -0.05788,2.440511 -0.05788,3.40514 0,1.138262 0.08682,3.424432 0.09646,2.286171 0.09646,3.424433 0,0.183279 -0.08682,0.231511 -0.02894,0.01929 -0.270096,0.04823 -0.578778,0.07717 -1.697747,0.07717 -1.244371,0 -1.745978,-0.07717 -0.270096,-0.04823 -0.270096,-0.299035 0,-1.138262 0.09646,-3.414786 0.09646,-2.276524 0.09646,-3.414786 0,-0.752411 -0.07717,-3.356909 -1.929258,0.192926 -3.077166,0.192926 -0.154341,0 -0.154341,-0.09646 0,-0.125402 0.135048,-0.742764 0.154341,-0.67524 0.173633,-0.819935 0.02894,-0.453375 0.06752,-0.906751 0.06752,-0.723472 0.231511,-0.723472 0.01929,0 0.135048,0.0096 1.562699,0.202572 4.620573,0.202572 0.868166,0 3.202568,-0.18328 1.254017,-0.09646 1.263664,-0.09646 0.192926,0 0.221864,0.02894 0.02894,0.01929 0.03859,0.18328 0,0.260449 -0.01929,0.723471 -0.01929,0.511254 -0.01929,0.723472 0,0.241157 0.05788,0.713825 0.06752,0.463022 0.06752,0.694533 z" />
      <path
         id="path78"
         d="m 62.443049,84.223481 -0.01929,6.655939 q 0,0.33762 -0.270096,0.376205 -0.308681,0.03859 -1.408358,0.03859 -1.061092,0 -1.475882,-0.07717 -0.318328,-0.05788 -0.318328,-0.41479 0,-0.829581 0.02894,-2.498389 0.02894,-1.668808 0.02894,-2.498389 0,-1.128616 -1.147909,-1.128616 -0.385851,0 -0.906751,0.308682 -0.569131,0.33762 -0.569131,0.704179 v 2.382633 q 0,0.463022 0.01929,1.398712 0.01929,0.926044 0.01929,1.389066 0,0.356912 -0.299035,0.395497 -0.299035,0.03859 -1.678454,0.03859 -0.790996,0 -1.138262,-0.07717 -0.347267,-0.07717 -0.347267,-0.33762 0,-0.762057 0.0096,-2.28617 0.0096,-1.53376 0.0096,-2.295817 0,-3.154337 -0.06752,-5.218642 -0.02894,-0.723472 -0.04823,-1.446944 -0.04823,-0.839227 -0.173634,-1.437297 -0.02894,-0.125402 -0.02894,-0.183279 0,-0.144695 0.144694,-0.192926 0.299035,-0.08682 0.877812,-0.106109 0.771703,-0.02894 0.897105,-0.04823 1.745978,-0.202572 1.745978,-0.202572 0.154341,0 0.154341,0.202572 0,0.308681 -0.03858,0.839227 -0.03859,0.617363 -0.03859,0.839228 -0.05788,2.180061 -0.05788,3.443725 0,0.192925 0.09646,0.192925 0.01929,0 0.491961,-0.33762 0.559484,-0.395497 1.070738,-0.627008 0.762057,-0.337621 1.475882,-0.337621 1.234725,0 2.064306,0.646302 0.897105,0.694533 0.897105,1.900319 z" />
      <path
         id="path80"
         d="m 73.700269,86.393896 q 0,0.742764 0.08682,2.209 0.08682,1.466236 0.08682,2.199354 0,0.385851 -0.33762,0.41479 -1.19614,0.08682 -2.739546,0.08682 -0.18328,0 -0.250804,-0.549839 -0.05788,-0.559484 -0.144694,-0.569131 -0.07717,0.03859 -0.202572,0.163987 -1.080384,1.090031 -2.315109,1.090031 -1.881027,0 -3.115752,-1.485529 -1.167201,-1.389065 -1.167201,-3.318323 0,-2.228293 1.205786,-3.588419 1.254018,-1.408359 3.434079,-1.408359 1.514468,0 2.39228,1.061092 0.03858,0.04823 0.06752,0.04823 0.08682,0 0.192926,-0.463022 0.115755,-0.472668 0.270096,-0.472668 0.356913,0 1.360127,0.202572 0.954982,0.192925 1.369773,0.327973 0.144694,0.05788 0.144694,0.154341 0,0.03858 -0.02894,0.202572 -0.308681,1.745978 -0.308681,3.694529 z m -3.106105,0.05788 q 0,-0.819935 -0.5209,-1.350481 -0.511253,-0.540192 -1.340834,-0.540192 -0.829581,0 -1.340834,0.530546 -0.511253,0.530546 -0.511253,1.360127 0,0.781349 0.540192,1.340834 0.540192,0.559484 1.311895,0.559484 0.819935,0 1.340834,-0.530545 0.5209,-0.540193 0.5209,-1.369773 z" />
      <path
         id="path82"
         d="m 85.208292,90.937298 q 0,0.26045 -0.270096,0.299035 -0.270096,0.03858 -1.408359,0.03858 -1.215432,0 -1.504821,-0.05788 -0.289388,-0.05788 -0.289388,-0.395498 0,-0.453375 0.02894,-1.369773 0.02894,-0.916397 0.02894,-1.379419 0,-0.356913 -0.01929,-1.061092 -0.01929,-0.713825 -0.01929,-1.070738 0,-1.321541 -1.147908,-1.321541 -0.376205,0 -0.877812,0.327973 -0.540193,0.366559 -0.540193,0.723472 v 5.208996 q 0,0.318328 -0.299035,0.356913 -0.33762,0.03858 -1.379419,0.03858 -1.128616,0 -1.466236,-0.05788 -0.299035,-0.04823 -0.299035,-0.318327 0,-0.752411 0.0096,-2.266878 0.0096,-1.514468 0.0096,-2.276524 0,-2.401926 -0.376206,-3.771699 -0.01929,-0.08682 -0.01929,-0.144695 0,-0.15434 0.144694,-0.212218 0.607716,-0.06752 1.620577,-0.212218 1.53376,-0.299035 1.726686,-0.299035 0.106109,0 0.163986,0.655947 0.05788,0.646302 0.163987,0.646302 -0.106109,0 1.032153,-0.665594 1.147909,-0.675241 2.006428,-0.675241 1.225079,0 2.045014,0.578778 0.916397,0.665594 0.916397,1.852087 v 3.077167 q 0,0.627008 0.0096,1.881026 0.0096,1.244371 0.0096,1.87138 z" />
      <path
         id="path84"
         d="m 97.526601,84.918014 q 0,2.131829 -2.093245,3.241153 -0.192926,0.09646 -0.192926,0.202572 0,0.163987 0.897105,1.369773 0.897105,1.19614 0.897105,1.254017 0,0.26045 -2.556266,0.26045 -0.983922,0 -1.138262,-0.250803 -0.385852,-0.646302 -1.205787,-1.852088 -0.04823,-0.05788 -1.736332,-0.135048 0,0.299035 0.0096,0.954983 0.0096,0.655947 0.0096,0.974275 0,0.289389 -0.279742,0.318327 -0.173634,0.01929 -1.524114,0.01929 -1.167201,0 -1.360127,-0.03858 -0.26045,-0.04823 -0.26045,-0.395498 v -5.903529 q 0,-1.186493 -0.08682,-3.549834 -0.08682,-2.363341 -0.08682,-3.540188 0,-0.231511 0.26045,-0.241158 0.511253,0 1.53376,-0.01929 0.270096,-0.01929 0.93569,-0.115756 0.588424,-0.08682 0.926044,-0.08682 0.15434,0 0.15434,0.279742 0,0.366559 -0.05788,0.993568 -0.06752,0.733118 -0.07717,1.003214 -0.08682,2.073952 -0.08682,3.212214 0,0.270096 0.06752,0.279743 0.08682,-0.05788 0.231511,-0.212219 1.254017,-1.302249 3.048227,-1.302249 1.688101,0 2.681668,0.771703 1.090031,0.85852 1.090031,2.508036 z m -3.829577,0.627008 q 0,-1.167201 -1.321541,-1.167201 -0.588424,0 -1.254018,0.44373 -0.713825,0.472668 -0.713825,1.032153 0,0.800642 0.221864,0.964629 0.173634,0.115755 1.109324,0.115755 1.958196,0 1.958196,-1.389066 z" />
      <path
         id="path86"
         d="m 104.33688,83.413193 q 0,0.09646 -0.14469,0.260449 -0.2701,-0.06752 -0.5402,-0.06752 -0.56913,0 -0.95498,0.250804 -0.46302,0.289388 -0.46302,0.819934 0,0.33762 0.49196,0.85852 0.74276,0.78135 0.9164,1.051446 0.49196,0.733118 0.49196,1.572345 0,0.49196 -0.19293,1.041799 -0.22186,0.607716 -0.55948,0.887459 -0.71383,0.617362 -1.66881,1.041799 -1.03215,0.443729 -1.900319,0.443729 -0.192926,0 -0.868166,-1.041799 -0.665594,-1.051446 -0.665594,-1.282957 0,-0.08682 0.106109,-0.106109 0.675241,-0.125402 1.360127,-0.250803 0.848873,-0.270096 0.848873,-0.887459 0,-0.424437 -0.49196,-0.983921 -0.877812,-0.974276 -0.916398,-1.032153 -0.49196,-0.694533 -0.49196,-1.466236 0,-1.446944 1.466238,-2.459804 1.31189,-0.897105 2.80707,-0.897105 0.15434,0 0.76205,1.041799 0.60772,1.032153 0.60772,1.205787 z" />
      <path
         id="path88"
         d="m 116.58767,84.995184 q 0,0.231511 -0.25081,0.231511 -1.04179,0 -1.63986,-0.05788 0.0289,0.723472 0.0579,2.016075 0.01,0.549838 0.0868,1.909965 0.0675,1.225078 0.0675,1.909965 0,0.202572 -0.27009,0.231511 -0.32798,0.03858 -1.63987,0.03858 -1.09003,0 -1.41801,-0.05788 -0.32797,-0.05788 -0.32797,-0.395498 v -5.315105 q 0,-0.279742 -0.38585,-0.279742 -0.0675,0 -0.22187,0.0096 -0.14469,0.0096 -0.21221,0.0096 -0.2701,0 -0.27975,-0.15434 -0.0868,-0.839227 -0.0868,-2.440511 0,-0.356913 0.36656,-0.434083 0.32797,-0.02894 0.66559,-0.04823 -0.0482,-0.771703 -0.0482,-1.205786 0,-1.659162 0.6463,-2.411572 1.28296,-1.495175 4.1479,-1.495175 0.19293,0 0.23152,0.115755 0.0772,0.434083 0.22186,1.282957 0.01,0.07717 0.1254,0.540192 0.0868,0.356913 0.0868,0.549839 0,0.231511 -0.68489,0.299035 -0.79099,0.08682 -0.97427,0.289388 -0.31833,0.347267 -0.31833,1.360127 0,0.318328 0.0482,0.59807 0.2701,0 0.83923,-0.01929 0.56913,-0.01929 0.85852,-0.01929 0.28939,0 0.28939,0.212218 0,0.453376 0.01,1.369773 0.01,0.906751 0.01,1.360127 z" />
      <path
         id="path90"
         d="m 126.91885,86.471066 q 0,2.199354 -1.35048,3.569127 -1.34084,1.369773 -3.53054,1.369773 -2.12219,0 -3.49196,-1.35048 -1.36977,-1.350481 -1.36977,-3.472664 0,-2.237939 1.31189,-3.627005 1.3119,-1.398712 3.54984,-1.398712 2.18006,0 3.53054,1.369773 1.35048,1.360127 1.35048,3.540188 z m -3.16398,0 q 0,-0.762057 -0.47267,-1.340834 -0.47267,-0.588424 -1.22508,-0.588424 -0.76206,0 -1.25402,0.59807 -0.46302,0.559485 -0.46302,1.331188 0,0.78135 0.46302,1.340834 0.49196,0.59807 1.25402,0.59807 0.75241,0 1.24437,-0.59807 0.45338,-0.559484 0.45338,-1.340834 z" />
      <path
         id="path92"
         d="m 134.49118,85.207402 q 0,0.376206 -0.41479,0.376206 -0.18328,0 -0.54019,-0.01929 -0.34727,-0.02894 -0.5209,-0.02894 -0.80064,0 -1.09003,0.250804 -0.28939,0.250803 -0.28939,1.01286 0,0.41479 0.01,1.263664 0.0193,0.839227 0.0193,1.254017 0,0.279743 0.0386,0.839228 0.0386,0.549838 0.0386,0.819934 0,0.231511 -0.31833,0.26045 -0.46302,0.03858 -1.418,0.03858 -0.9164,0 -1.46624,-0.05788 -0.31833,-0.03858 -0.31833,-0.318327 0,-0.771703 0.01,-2.305463 0.01,-1.543407 0.01,-2.31511 0,-2.266878 -0.41479,-3.733114 -0.0193,-0.08682 -0.0193,-0.144694 0,-0.144694 0.1447,-0.192926 0.53054,-0.05788 1.55305,-0.212218 1.52411,-0.299035 1.57234,-0.299035 0.17364,0 0.22187,0.607716 0.0482,0.607716 0.17363,0.607716 -0.13505,0 0.791,-0.501607 0.92604,-0.511253 1.78456,-0.511253 0.54019,0 0.54019,0.231511 0,0.279742 -0.0579,0.790996 -0.0579,0.549838 -0.0675,0.790995 0,0.279743 0.01,0.742765 0.0193,0.569131 0.0193,0.75241 z" />
      <path
         id="path94"
         d="m 146.94454,84.869782 q -0.01,0 -0.58842,-0.15434 -0.56913,-0.154341 -0.92605,-0.154341 -0.85852,0 -1.36977,0.5209 -0.51125,0.511253 -0.51125,1.369773 0,0.887458 0.55948,1.398711 0.55949,0.501607 1.45659,0.501607 0.42444,0 0.95498,-0.212218 0.53055,-0.221865 0.50161,-0.221865 0.16399,0 0.42444,1.225079 0.22186,1.11897 0.22186,1.485529 0,0.366559 -1.19614,0.627008 -0.92604,0.202573 -1.49517,0.202573 -2.12219,0 -3.50161,-1.427651 -1.37942,-1.427651 -1.37942,-3.559481 0,-2.112537 1.37942,-3.549834 1.38907,-1.446944 3.50161,-1.446944 1.43729,0 2.52732,0.617363 0.25081,0.135048 0.25081,0.26045 0,0.125401 -0.28939,1.138262 -0.2701,0.974275 -0.35691,1.176847 -0.0772,0.202572 -0.16399,0.202572 z" />
      <path
         id="path96"
         d="m 158.05706,86.471066 q 0,2.199354 -1.35048,3.569127 -1.34083,1.369773 -3.53054,1.369773 -2.12218,0 -3.49196,-1.35048 -1.36977,-1.350481 -1.36977,-3.472664 0,-2.237939 1.3119,-3.627005 1.31189,-1.398712 3.54983,-1.398712 2.18006,0 3.53054,1.369773 1.35048,1.360127 1.35048,3.540188 z m -3.16398,0 q 0,-0.762057 -0.47267,-1.340834 -0.47267,-0.588424 -1.22508,-0.588424 -0.76205,0 -1.25402,0.59807 -0.46302,0.559485 -0.46302,1.331188 0,0.78135 0.46302,1.340834 0.49197,0.59807 1.25402,0.59807 0.75241,0 1.24437,-0.59807 0.45338,-0.559484 0.45338,-1.340834 z" />
      <path
         id="path98"
         d="m 174.64868,90.860128 q 0,0.33762 -0.28939,0.376205 -0.28938,0.03858 -1.42765,0.03858 -1.17684,0 -1.46623,-0.05788 -0.28939,-0.05788 -0.28939,-0.472668 0,-0.443729 0.0289,-1.321541 0.0289,-0.887459 0.0289,-1.331188 0,-1.688101 -0.0386,-2.401926 -0.0579,-1.147909 -1.09003,-1.147909 -0.45337,0 -0.90675,0.385852 -0.44373,0.376205 -0.49196,0.839227 -0.0386,0.405144 -0.0386,2.372987 0,0.453376 0.0289,1.379419 0.0289,0.916398 0.0289,1.37942 0,0.318327 -0.27974,0.318327 h -2.92283 q -0.27009,0 -0.27009,-0.395498 0,-0.453375 0.0289,-1.360126 0.0289,-0.906751 0.0289,-1.369773 0,-0.356913 -0.0193,-1.080385 -0.0193,-0.723471 -0.0193,-1.09003 0,-1.37942 -1.05145,-1.37942 -0.42443,0 -0.91639,0.327974 -0.5402,0.356913 -0.5402,0.752411 0,0.877812 0.01,2.62379 0.01,1.745979 0.01,2.614145 0,0.241157 -0.0579,0.299035 -0.0579,0.05788 -0.29904,0.07717 -0.43408,0.03858 -1.36977,0.03858 -0.60771,0 -1.37942,-0.05788 -0.23151,-0.01929 -0.27974,-0.06752 -0.0386,-0.04823 -0.0386,-0.289388 0,-0.771703 0.01,-2.305463 0.01,-1.543407 0.01,-2.31511 0,-1.581991 -0.23151,-3.55948 -0.0193,-0.115756 -0.0193,-0.173634 0,-0.163987 0.13505,-0.221864 0.21222,-0.08682 0.80064,-0.144695 0.72348,-0.06752 0.85852,-0.08682 0.0965,-0.01929 0.76206,-0.202572 0.47267,-0.135048 0.76206,-0.135048 0.18328,0 0.19292,0.67524 0.01,0.665594 0.0772,0.665594 0.0965,-0.03858 0.22187,-0.135048 0.86816,-0.67524 1.36977,-0.926044 0.74277,-0.356913 1.61093,-0.356913 0.88746,0 1.58199,0.395498 0.78135,0.443729 1.01286,1.244371 0.51126,-0.694532 1.40836,-1.167201 0.89711,-0.472668 1.74598,-0.472668 1.27331,0 2.07395,0.588424 0.90675,0.665594 0.90675,1.900319 0,0.511253 -0.0289,1.543406 -0.0289,1.022507 -0.0289,1.53376 0,0.607716 0.0289,1.832795 0.0289,1.215432 0.0289,1.823149 z" />
      <path
         id="path100"
         d="m 180.30141,79.622201 q 0,1.678454 -1.89067,1.678454 -0.81029,0 -1.34084,-0.424437 -0.57877,-0.463021 -0.57877,-1.254017 0,-0.752411 0.59807,-1.234725 0.54983,-0.443729 1.32154,-0.443729 0.75241,0 1.30225,0.453375 0.58842,0.482315 0.58842,1.225079 z m -0.2508,7.167193 q 0,0.704179 0.0289,2.102891 0.0289,1.389065 0.0289,2.083598 0,0.202572 -0.24115,0.241157 -0.32798,0.05788 -1.47589,0.05788 -1.15755,0 -1.48552,-0.05788 -0.21222,-0.03858 -0.26045,-0.125401 -0.0193,-0.03859 -0.0193,-0.289389 0,-0.665594 0.0289,-1.996782 0.0289,-1.340834 0.0289,-2.016074 0,-2.739546 -0.21222,-4.360123 -0.0193,-0.154341 -0.0193,-0.202572 0,-0.192926 0.26045,-0.192926 0.2701,0 0.81993,0.05788 0.55949,0.05788 0.83923,0.05788 0.27974,0 0.83923,-0.04823 0.55948,-0.04823 0.83923,-0.04823 0.23151,0 0.23151,0.192926 0,0.03858 -0.0193,0.183279 -0.21221,1.881026 -0.21221,4.360123 z" />
      <path
         id="path102"
         d="m 191.5104,90.937298 q 0,0.26045 -0.2701,0.299035 -0.2701,0.03858 -1.40836,0.03858 -1.21543,0 -1.50482,-0.05788 -0.28939,-0.05788 -0.28939,-0.395498 0,-0.453375 0.0289,-1.369773 0.0289,-0.916397 0.0289,-1.379419 0,-0.356913 -0.0193,-1.061092 -0.0193,-0.713825 -0.0193,-1.070738 0,-1.321541 -1.14791,-1.321541 -0.37621,0 -0.87782,0.327973 -0.54019,0.366559 -0.54019,0.723472 v 5.208996 q 0,0.318328 -0.29903,0.356913 -0.33762,0.03858 -1.37942,0.03858 -1.12862,0 -1.46624,-0.05788 -0.29903,-0.04823 -0.29903,-0.318327 0,-0.752411 0.01,-2.266878 0.01,-1.514468 0.01,-2.276524 0,-2.401926 -0.37621,-3.771699 -0.0193,-0.08682 -0.0193,-0.144695 0,-0.15434 0.1447,-0.212218 0.60771,-0.06752 1.62057,-0.212218 1.53376,-0.299035 1.72669,-0.299035 0.10611,0 0.16399,0.655947 0.0579,0.646302 0.16398,0.646302 -0.10611,0 1.03216,-0.665594 1.1479,-0.675241 2.00642,-0.675241 1.22508,0 2.04502,0.578778 0.91639,0.665594 0.91639,1.852087 v 3.077167 q 0,0.627008 0.01,1.881026 0.01,1.244371 0.01,1.87138 z" />
      <path
         id="path104"
         d="m 202.71939,88.709005 q 0,2.749193 -1.15756,3.945332 -1.19614,1.225079 -3.97427,1.225079 -0.81029,0 -2.209,-0.26045 -1.78456,-0.327974 -1.78456,-0.771703 0,-0.183279 0.41479,-1.890672 0.0675,-0.270097 0.21222,-0.270097 0.0482,0.0096 0.10611,0.03859 1.48552,0.733118 2.74919,0.733118 0.69453,0 1.37942,-0.347267 0.82958,-0.41479 0.82958,-1.041799 v -0.646301 q -0.98392,0.926043 -2.52733,0.926043 -1.8135,0 -2.9807,-1.302249 -1.12862,-1.254017 -1.12862,-3.086812 0,-1.842441 1.08039,-3.057874 1.12861,-1.263664 2.95176,-1.263664 1.45659,0 2.22829,1.0418 0.15434,0.212218 0.21222,0.212218 0.0868,0 0.0868,-0.347267 0,-0.771703 0.17363,-0.771703 0.15434,0 1.66881,0.163987 1.51447,0.154341 1.57234,0.173633 0.16399,0.05788 0.16399,0.250804 0,0.665594 -0.0482,1.987136 -0.0386,1.321541 -0.0386,1.987135 0,0.395498 0.01,1.186494 0.01,0.790995 0.01,1.186493 z m -3.33762,-2.672022 q 0,-0.704179 -0.47267,-1.215432 -0.46302,-0.5209 -1.1672,-0.5209 -0.70418,0 -1.17685,0.530546 -0.46302,0.5209 -0.46302,1.225079 0,0.704179 0.47267,1.215432 0.48231,0.511253 1.1672,0.511253 0.70418,0 1.1672,-0.520899 0.47267,-0.5209 0.47267,-1.225079 z" />
      <path
         id="path106"
         d="m 213.17596,80.017699 q 0,1.755624 -0.31832,3.299031 -0.38586,1.581991 -0.76206,3.154336 -0.0868,0.356913 -0.7717,0.356913 -0.78135,0 -0.86817,-0.308681 -0.90675,-3.096459 -0.90675,-3.520896 0,-0.395498 0.0386,-1.176847 0.0386,-0.78135 0.0386,-1.176847 0,-0.434083 -0.0289,-1.302249 -0.0289,-0.868166 -0.0289,-1.30225 0,-0.356912 0.17363,-0.356912 0.2701,0 0.81029,0.03858 0.54019,0.03859 0.81029,0.03859 0.2701,0 0.81029,-0.03859 0.54019,-0.03858 0.81029,-0.03858 0.19292,0 0.19292,2.334402 z m 0,9.559472 q 0,0.810288 -0.5016,1.350481 -0.50161,0.530546 -1.3119,0.530546 -0.81993,0 -1.32154,-0.530546 -0.49196,-0.530546 -0.49196,-1.350481 0,-0.810288 0.50161,-1.331188 0.5016,-0.520899 1.31189,-0.520899 0.80064,0 1.30225,0.520899 0.51125,0.5209 0.51125,1.331188 z" />
    </g>
  </g>
</svg>
