<?xml version="1.0" encoding="UTF-8" standalone="no"?>
<svg
   xmlns:dc="http://purl.org/dc/elements/1.1/"
   xmlns:cc="http://creativecommons.org/ns#"
   xmlns:rdf="http://www.w3.org/1999/02/22-rdf-syntax-ns#"
   xmlns:svg="http://www.w3.org/2000/svg"
   xmlns="http://www.w3.org/2000/svg"
   xmlns:xlink="http://www.w3.org/1999/xlink"
   xmlns:sodipodi="http://sodipodi.sourceforge.net/DTD/sodipodi-0.dtd"
   xmlns:inkscape="http://www.inkscape.org/namespaces/inkscape"
   width="276.12152mm"
   height="97.328537mm"
   viewBox="0 0 276.12152 97.328537"
   version="1.1"
   id="svg32"
   inkscape:version="1.0 (4035a4fb49, 2020-05-01)"
   sodipodi:docname="top.svg">
  <defs
     id="defs26">
    <linearGradient
       inkscape:collect="always"
       id="linearGradient67">
      <stop
         style="stop-color:#ffee7e;stop-opacity:1"
         offset="0"
         id="stop63" />
      <stop
         style="stop-color:#3771c8;stop-opacity:1"
         offset="1"
         id="stop65" />
    </linearGradient>
    <rect
       x="41.577381"
       y="72.571426"
       width="252.84715"
       height="40.181671"
       id="rect51" />
    <radialGradient
       inkscape:collect="always"
       xlink:href="#linearGradient67"
       id="radialGradient934"
       cx="503.90341"
       cy="-78.57724"
       fx="503.90341"
       fy="-78.57724"
       r="137.94239"
       gradientTransform="matrix(-1.1023661,-0.00255992,0.00126425,-0.50790034,801.62893,-5.4923052)"
       gradientUnits="userSpaceOnUse" />
  </defs>
  <sodipodi:namedview
     id="base"
     pagecolor="#ffffff"
     bordercolor="#666666"
     borderopacity="1.0"
     inkscape:pageopacity="0.0"
     inkscape:pageshadow="2"
     inkscape:zoom="0.88"
     inkscape:cx="593.21445"
     inkscape:cy="344.33606"
     inkscape:document-units="mm"
     inkscape:current-layer="layer1"
     inkscape:document-rotation="0"
     showgrid="false"
     inkscape:window-width="1920"
     inkscape:window-height="1001"
     inkscape:window-x="-9"
     inkscape:window-y="-9"
     inkscape:window-maximized="1"
     fit-margin-top="0"
     fit-margin-left="0"
     fit-margin-right="0"
     fit-margin-bottom="0" />
  <metadata
     id="metadata29">
    <rdf:RDF>
      <cc:Work
         rdf:about="">
        <dc:format>image/svg+xml</dc:format>
        <dc:type
           rdf:resource="http://purl.org/dc/dcmitype/StillImage" />
        <dc:title />
      </cc:Work>
    </rdf:RDF>
  </metadata>
  <g
     inkscape:label="Calque 1"
     inkscape:groupmode="layer"
     id="layer1"
     transform="translate(29.959572,-33.008053)">
    <path
       inkscape:export-ydpi="96"
       inkscape:export-xdpi="96"
       sodipodi:nodetypes="cccccc"
       id="path24"
       d="m 246.04358,33.127151 -275.884775,0.166688 v 73.376251 c 41.319723,12.08482 59.960673,28.71979 138.320305,15.20348 86.22313,-23.49904 60.7154,-12.21969 137.56447,-20.59521 z"
       style="fill:url(#radialGradient934);fill-opacity:1;stroke:none;stroke-width:0.232686px;stroke-linecap:butt;stroke-linejoin:miter;stroke-opacity:1" />
    <g
       style="font-style:normal;font-variant:normal;font-weight:normal;font-stretch:normal;font-size:19.7556px;line-height:1.25;font-family:'Berlin Sans FB Demi';-inkscape-font-specification:'Berlin Sans FB Demi, Normal';font-variant-ligatures:normal;font-variant-caps:normal;font-variant-numeric:normal;font-variant-east-asian:normal;white-space:pre;shape-inside:url(#rect51);fill:#ffffff;fill-opacity:1;stroke:none"
       id="text49"
       transform="translate(-36.285714,-8.315476)"
       aria-label="HEY ! I'M ALEXANDRE">
      <path
         id="path26"
         style="font-style:normal;font-variant:normal;font-weight:normal;font-stretch:normal;font-size:19.7556px;font-family:'Berlin Sans FB Demi';-inkscape-font-specification:'Berlin Sans FB Demi, Normal';font-variant-ligatures:normal;font-variant-caps:normal;font-variant-numeric:normal;font-variant-east-asian:normal;fill:#ffffff"
         d="m 55.410903,90.918005 q 0,0.202572 -0.08682,0.250804 -0.03858,0.02894 -0.270096,0.04823 -0.588424,0.05788 -1.659162,0.05788 -1.514467,0 -1.784563,-0.05788 -0.26045,-0.05788 -0.26045,-0.260449 0,-0.762057 0.06752,-2.286171 0.07717,-1.53376 0.07717,-2.295817 0,-0.376205 -0.212218,-0.434083 -0.327974,-0.07717 -2.334402,-0.07717 -2.016075,0 -2.353695,0.07717 -0.212218,0.04823 -0.212218,0.434083 0,0.752411 0.04823,2.257232 0.04823,1.495175 0.04823,2.247585 0,0.289389 -0.26045,0.33762 -0.308681,0.05788 -1.813502,0.05788 -1.302249,0 -1.659162,-0.05788 -0.279742,-0.04823 -0.279742,-0.299035 0,-1.041799 0.09646,-3.14469 0.10611,-2.102891 0.10611,-3.154336 0,-1.11897 -0.09646,-3.356909 -0.09646,-2.247585 -0.09646,-3.366555 0,-0.212218 0.202572,-0.212218 0.299035,0 0.897105,0.02894 0.607716,0.02894 0.906751,0.02894 0.308681,0 0.926044,-0.02894 0.627009,-0.02894 0.93569,-0.02894 0.163987,0 0.163987,0.173633 0,0.723472 -0.106109,2.170415 -0.10611,1.437297 -0.10611,2.160769 0,0.33762 0.18328,0.395498 0.250803,0.07717 2.46945,0.07717 2.064306,0 2.39228,-0.07717 0.23151,-0.05788 0.23151,-0.395498 0,-0.694533 -0.06752,-2.093245 -0.06752,-1.408358 -0.06752,-2.112537 0,-0.299035 0.241158,-0.299035 0.279742,0 0.848873,0.02894 0.578777,0.02894 0.868166,0.02894 0.279742,0 0.848874,-0.02894 0.578777,-0.02894 0.868166,-0.02894 0.279742,0 0.279742,0.231511 0,1.109323 -0.09646,3.347262 -0.08682,2.237939 -0.08682,3.356909 0,1.051445 0.09646,3.154336 0.106109,2.102891 0.106109,3.14469 z" />
      <path
         id="path28"
         style="font-style:normal;font-variant:normal;font-weight:normal;font-stretch:normal;font-size:19.7556px;font-family:'Berlin Sans FB Demi';-inkscape-font-specification:'Berlin Sans FB Demi, Normal';font-variant-ligatures:normal;font-variant-caps:normal;font-variant-numeric:normal;font-variant-east-asian:normal;fill:#ffffff"
         d="m 67.082913,88.217044 q 0,0.414791 -0.163987,1.524114 -0.173633,1.205786 -0.308681,1.437297 -0.115755,0.18328 -0.318328,0.18328 -0.08682,0 -0.289388,-0.02894 -0.704179,-0.09646 -4.109319,-0.09646 -0.742765,0 -2.209001,-0.0096 -1.466235,-0.0096 -2.199353,-0.0096 -0.318328,0 -0.318328,-0.279742 0,-1.080384 0.115756,-3.241153 0.125401,-2.170415 0.125401,-3.2508 0,-1.099677 -0.115755,-4.099672 -0.02894,-0.771704 -0.106109,-2.305464 l -0.0096,-0.135048 q -0.01929,-0.221864 0.241158,-0.221864 0.713825,0 2.141476,0.03858 1.437297,0.03859 2.151122,0.03859 0.704179,0 2.122184,-0.03859 1.418004,-0.03858 2.122183,-0.03858 0.501607,0 0.578778,0.376205 0.04823,0.221865 0.144694,1.350481 0.106109,1.118969 0.106109,1.360126 0,0.202572 -0.192926,0.202572 -0.05788,0 -0.202572,-0.0096 -2.565913,-0.212218 -4.610926,-0.212218 -0.511253,0 -0.627009,0.241157 -0.04823,0.115755 -0.04823,0.742764 0,0.655948 0.192926,0.868166 0.163987,0.18328 0.627009,0.18328 0.09646,0 0.376205,-0.0096 0.279742,-0.01929 0.463022,-0.01929 1.215432,0 2.459803,-0.06752 0.10611,-0.0096 0.530546,-0.04823 0.327974,-0.03859 0.5209,-0.03859 0.231511,0 0.231511,0.221865 0,-0.202572 -0.173633,1.475882 -0.07717,0.771703 -0.07717,1.543406 0,0.192926 -0.279742,0.192926 0,0 -0.868166,-0.09646 -0.549839,-0.05788 -2.508035,-0.05788 h -1.022507 q -0.395498,0 -0.463022,0.192926 -0.0096,0.04823 -0.0096,0.59807 0,0.733118 0.09646,0.945337 0.163987,0.366559 1.234725,0.434083 -0.01929,0 1.408358,0 0.511253,0 1.514467,-0.08682 1.012861,-0.09646 1.514468,-0.09646 0.212218,0 0.212218,0.347266 z" />
      <path
         id="path30"
         style="font-style:normal;font-variant:normal;font-weight:normal;font-stretch:normal;font-size:19.7556px;font-family:'Berlin Sans FB Demi';-inkscape-font-specification:'Berlin Sans FB Demi, Normal';font-variant-ligatures:normal;font-variant-caps:normal;font-variant-numeric:normal;font-variant-east-asian:normal;fill:#ffffff"
         d="m 79.420517,81.1849 q 0,0.41479 -0.15434,0.723471 -1.263664,2.498389 -3.443725,5.257228 -0.308682,0.405144 -0.308682,0.733118 0,0.511253 0.05788,1.53376 0.05788,1.022507 0.05788,1.524114 0,0.173633 -0.07717,0.212218 -0.01929,0.0096 -0.260449,0.04823 -0.347267,0.05788 -1.736332,0.05788 -1.398712,0 -1.784564,-0.05788 -0.270096,-0.03858 -0.270096,-0.279742 0,-0.511253 0.08682,-1.553053 0.08682,-1.051445 0.08682,-1.572345 0,-0.308681 -0.231511,-0.665594 -1.167201,-1.649515 -3.337616,-5.054655 -0.221864,-0.376205 -0.221864,-0.617363 0,-0.578777 -0.05788,-1.736332 -0.05788,-1.157554 -0.05788,-1.736332 0,-0.318327 0.192926,-0.318327 0.588424,0 1.784563,0.04823 1.19614,0.04823 1.79421,0.04823 0.221865,0 0.221865,0.144694 0,0.491961 -0.04823,1.485529 -0.03858,0.983921 -0.03858,1.475882 0,0.289388 0.848874,1.446943 0.67524,0.906751 1.109323,1.398712 0.395498,-0.463022 1.051445,-1.389066 0.829581,-1.157554 0.829581,-1.398711 0,-0.482315 -0.07717,-1.45659 -0.06752,-0.983922 -0.06752,-1.466236 0,-0.202572 0.08682,-0.231511 0,0 0.241157,0 0.578777,0 1.736332,-0.04823 1.167201,-0.05788 1.755624,-0.05788 0.192926,0 0.192926,0.41479 0,0.511254 0.01929,1.543406 0.01929,1.022507 0.01929,1.543407 z" />
      <path
         id="path32"
         style="font-style:normal;font-variant:normal;font-weight:normal;font-stretch:normal;font-size:19.7556px;font-family:'Berlin Sans FB Demi';-inkscape-font-specification:'Berlin Sans FB Demi, Normal';font-variant-ligatures:normal;font-variant-caps:normal;font-variant-numeric:normal;font-variant-east-asian:normal;fill:#ffffff"
         d="m 89.356192,80.017699 q 0,1.755624 -0.318327,3.299031 -0.385852,1.581991 -0.762057,3.154336 -0.08682,0.356913 -0.771703,0.356913 -0.78135,0 -0.868166,-0.308681 -0.906751,-3.096459 -0.906751,-3.520896 0,-0.395498 0.03859,-1.176847 0.03858,-0.78135 0.03858,-1.176847 0,-0.434083 -0.02894,-1.302249 -0.02894,-0.868166 -0.02894,-1.30225 0,-0.356912 0.173633,-0.356912 0.270096,0 0.810289,0.03858 0.540192,0.03859 0.810288,0.03859 0.270096,0 0.810288,-0.03859 0.540192,-0.03858 0.810288,-0.03858 0.192926,0 0.192926,2.334402 z m 0,9.559472 q 0,0.810288 -0.501607,1.350481 -0.501607,0.530546 -1.311895,0.530546 -0.819935,0 -1.321542,-0.530546 -0.49196,-0.530546 -0.49196,-1.350481 0,-0.810288 0.501607,-1.331188 0.501607,-0.520899 1.311895,-0.520899 0.800642,0 1.302249,0.520899 0.511253,0.5209 0.511253,1.331188 z" />
      <path
         id="path34"
         style="font-style:normal;font-variant:normal;font-weight:normal;font-stretch:normal;font-size:19.7556px;font-family:'Berlin Sans FB Demi';-inkscape-font-specification:'Berlin Sans FB Demi, Normal';font-variant-ligatures:normal;font-variant-caps:normal;font-variant-numeric:normal;font-variant-east-asian:normal;fill:#ffffff"
         d="m 99.938175,84.088433 q 0,1.138262 0.05788,3.424432 0.05788,2.286171 0.05788,3.424433 0,0.192926 -0.08682,0.241157 -0.01929,0.0096 -0.250804,0.03858 -0.627008,0.07717 -1.678454,0.07717 -1.408358,0 -1.79421,-0.07717 -0.279742,-0.05788 -0.279742,-0.299035 0,0.154341 0.08682,-1.697746 0.173633,-3.906748 0.173633,-5.131826 0,-1.032153 -0.06752,-3.096459 -0.06752,-2.064306 -0.06752,-3.096459 0,-0.212218 0.221864,-0.212218 0.299035,0 0.897105,0.02894 0.607716,0.02894 0.906751,0.02894 0.299035,0 0.877813,-0.02894 0.588423,-0.02894 0.887458,-0.02894 0.279743,0 0.279743,0.212218 0,1.032153 -0.11576,3.096459 -0.106105,2.064306 -0.106105,3.096459 z" />
      <path
         id="path36"
         style="font-style:normal;font-variant:normal;font-weight:normal;font-stretch:normal;font-size:19.7556px;font-family:'Berlin Sans FB Demi';-inkscape-font-specification:'Berlin Sans FB Demi, Normal';font-variant-ligatures:normal;font-variant-caps:normal;font-variant-numeric:normal;font-variant-east-asian:normal;fill:#ffffff"
         d="m 104.90601,79.419629 q 0,1.601284 -0.70418,3.48231 -0.0675,0.173633 -0.22186,0.192926 -0.23151,0.03858 -0.62701,0.03858 -0.27974,0 -0.55949,-0.03858 -0.41479,-0.05788 -0.74276,-1.79421 -0.26045,-1.379419 -0.26045,-2.170415 v -1.186493 q 0,-0.221865 0.11576,-0.26045 0.16398,-0.05788 1.37941,-0.05788 1.3119,0 1.44695,0.05788 0.17363,0.07717 0.17363,1.736332 z" />
      <path
         id="path38"
         style="font-style:normal;font-variant:normal;font-weight:normal;font-stretch:normal;font-size:19.7556px;font-family:'Berlin Sans FB Demi';-inkscape-font-specification:'Berlin Sans FB Demi, Normal';font-variant-ligatures:normal;font-variant-caps:normal;font-variant-numeric:normal;font-variant-east-asian:normal;fill:#ffffff"
         d="m 120.89956,90.918005 q 0,0.299035 -0.27974,0.299035 h -3.41479 q -0.27974,0 -0.27974,-0.33762 0,-0.974275 0.0675,-2.922825 0.0772,-1.948551 0.0772,-2.922826 0,-0.279742 -0.0868,-0.299035 -0.10611,0.05788 -1.2926,2.980703 -0.69454,1.71704 -1.38907,3.424433 -0.0965,0.221865 -0.24116,0.26045 -0.0482,0.0096 -0.38585,0.0096 -0.50161,0 -0.59807,-0.192926 -0.5209,-1.061091 -1.36977,-3.086812 -0.90675,-2.141476 -1.36013,-3.096459 -0.0193,-0.04823 -0.0868,-0.106109 -0.0675,0.08682 -0.0675,0.279742 0,0.945337 0.0482,2.836009 0.0482,1.890673 0.0482,2.836009 0,0.33762 -0.27009,0.33762 h -3.22186 q -0.19293,0 -0.24116,-0.05788 -0.0386,-0.06752 -0.0386,-0.221865 0,-1.051446 0.0965,-3.154337 0.10611,-2.112537 0.10611,-3.163982 0,-1.11897 -0.0965,-4.196136 -0.01,-0.800642 -0.0868,-2.382634 l -0.01,-0.163986 q -0.01,-0.192926 0.40515,-0.192926 0.53054,0 1.59163,-0.02894 1.06109,-0.03858 1.59164,-0.03858 0.10611,0 0.29904,0.405144 l 2.81671,6.183271 q 0.29904,0.627009 0.50161,0.627009 0.10611,0 0.45337,-0.723472 0.97428,-2.02572 2.88424,-6.106101 0.16399,-0.376205 0.35692,-0.376205 0.27974,0 0.83922,0.02894 0.56914,0.02894 0.85852,0.02894 0.24116,0 0.73312,-0.04823 0.50161,-0.04823 0.74277,-0.04823 0.28939,0 0.28939,0.231511 0,1.138262 -0.0868,3.40514 -0.0772,2.257232 -0.0772,3.395494 0,1.051445 0.0868,3.154336 0.0868,2.102891 0.0868,3.14469 z" />
      <path
         id="path40"
         style="font-style:normal;font-variant:normal;font-weight:normal;font-stretch:normal;font-size:19.7556px;font-family:'Berlin Sans FB Demi';-inkscape-font-specification:'Berlin Sans FB Demi, Normal';font-variant-ligatures:normal;font-variant-caps:normal;font-variant-numeric:normal;font-variant-east-asian:normal;fill:#ffffff"
         d="m 140.34648,90.975883 q 0,0.173633 -0.24116,0.241157 -0.28939,0.07717 -1.79421,0.07717 -1.37942,0 -1.77492,-0.07717 -0.32797,-0.06752 -0.41479,-0.434083 -0.32797,-1.389065 -0.51125,-1.485528 -0.15434,-0.06752 -2.5852,-0.06752 -1.63987,0 -1.74598,0.08682 -0.16399,0.154341 -0.36656,1.032153 -0.18328,0.800642 -0.44373,0.868166 -0.32797,0.07717 -2.19935,0.07717 -1.47589,0 -1.47589,-0.279743 0,-0.250803 2.18006,-6.163978 2.36335,-6.39549 2.56592,-7.032145 0.11575,-0.366559 0.27009,-0.366559 0.26045,0 0.80065,0.04823 0.54983,0.04823 0.81993,0.04823 0.26045,0 0.76206,-0.02894 0.51125,-0.03858 0.76205,-0.03858 0.18328,0 0.33762,0.318327 0.47267,1.012861 2.75884,6.945328 2.29582,5.971053 2.29582,6.231503 z m -6.83922,-8.787769 q -0.20257,0.424437 -0.68489,1.842441 -0.5209,1.504821 -0.5209,1.765271 0,0.173633 0.57878,0.192926 0.29904,0.01929 0.98392,0.01929 0.63666,0 0.70418,-0.15434 0.0193,-0.04823 0.0193,-0.135048 0,-0.318328 -0.44372,-1.755625 -0.43409,-1.389066 -0.63666,-1.774917 z" />
      <path
         id="path42"
         style="font-style:normal;font-variant:normal;font-weight:normal;font-stretch:normal;font-size:19.7556px;font-family:'Berlin Sans FB Demi';-inkscape-font-specification:'Berlin Sans FB Demi, Normal';font-variant-ligatures:normal;font-variant-caps:normal;font-variant-numeric:normal;font-variant-east-asian:normal;fill:#ffffff"
         d="m 150.18569,91.381027 q -0.82958,0 -2.16076,-0.03858 -1.73634,-0.03859 -2.16077,-0.04823 l -2.88424,-0.03859 q -0.43409,0.0096 -1.24437,-0.03858 -0.27975,-0.04823 -0.27975,-0.299035 0,-1.051445 0.0289,-3.14469 0.0386,-2.102891 0.0386,-3.154336 0,-1.11897 -0.0675,-3.347263 -0.0675,-2.237939 -0.0675,-3.356908 0,-0.212219 0.28939,-0.212219 0.28939,0 0.85852,0.02894 0.57877,0.02894 0.85852,0.02894 0.31832,0 0.94533,-0.02894 0.62701,-0.03858 0.94534,-0.03858 0.14469,0 0.13505,0.18328 l -0.01,0.125401 q -0.11575,1.813503 -0.26045,5.450154 l -0.01,2.54662 q 0,1.234725 0.01,1.803856 0.01,0.115755 0.0193,0.231511 0.01,0.115755 0.1447,0.144694 0.01,0 0.2508,0 0.86817,0 2.59485,-0.08682 1.73634,-0.09646 2.6045,-0.09646 0.26045,0 0.26045,0.221864 0,1.649516 -0.24116,2.845656 -0.0482,0.250803 -0.20257,0.299035 -0.0482,0.01929 -0.3955,0.01929 z" />
      <path
         id="path44"
         style="font-style:normal;font-variant:normal;font-weight:normal;font-stretch:normal;font-size:19.7556px;font-family:'Berlin Sans FB Demi';-inkscape-font-specification:'Berlin Sans FB Demi, Normal';font-variant-ligatures:normal;font-variant-caps:normal;font-variant-numeric:normal;font-variant-east-asian:normal;fill:#ffffff"
         d="m 162.0024,88.217044 q 0,0.414791 -0.16399,1.524114 -0.17363,1.205786 -0.30868,1.437297 -0.11576,0.18328 -0.31833,0.18328 -0.0868,0 -0.28939,-0.02894 -0.70418,-0.09646 -4.10932,-0.09646 -0.74276,0 -2.209,-0.0096 -1.46623,-0.0096 -2.19935,-0.0096 -0.31833,0 -0.31833,-0.279742 0,-1.080384 0.11576,-3.241153 0.1254,-2.170415 0.1254,-3.2508 0,-1.099677 -0.11576,-4.099672 -0.0289,-0.771704 -0.10611,-2.305464 l -0.01,-0.135048 q -0.0193,-0.221864 0.24115,-0.221864 0.71383,0 2.14148,0.03858 1.4373,0.03859 2.15112,0.03859 0.70418,0 2.12219,-0.03859 1.418,-0.03858 2.12218,-0.03858 0.50161,0 0.57878,0.376205 0.0482,0.221865 0.14469,1.350481 0.10611,1.118969 0.10611,1.360126 0,0.202572 -0.19293,0.202572 -0.0579,0 -0.20257,-0.0096 -2.56591,-0.212218 -4.61092,-0.212218 -0.51126,0 -0.62701,0.241157 -0.0482,0.115755 -0.0482,0.742764 0,0.655948 0.19292,0.868166 0.16399,0.18328 0.62701,0.18328 0.0965,0 0.37621,-0.0096 0.27974,-0.01929 0.46302,-0.01929 1.21543,0 2.4598,-0.06752 0.10611,-0.0096 0.53055,-0.04823 0.32797,-0.03859 0.5209,-0.03859 0.23151,0 0.23151,0.221865 0,-0.202572 -0.17364,1.475882 -0.0772,0.771703 -0.0772,1.543406 0,0.192926 -0.27974,0.192926 0,0 -0.86816,-0.09646 -0.54984,-0.05788 -2.50804,-0.05788 h -1.02251 q -0.39549,0 -0.46302,0.192926 -0.01,0.04823 -0.01,0.59807 0,0.733118 0.0965,0.945337 0.16399,0.366559 1.23472,0.434083 -0.0193,0 1.40836,0 0.51126,0 1.51447,-0.08682 1.01286,-0.09646 1.51447,-0.09646 0.21222,0 0.21222,0.347266 z" />
      <path
         id="path46"
         style="font-style:normal;font-variant:normal;font-weight:normal;font-stretch:normal;font-size:19.7556px;font-family:'Berlin Sans FB Demi';-inkscape-font-specification:'Berlin Sans FB Demi, Normal';font-variant-ligatures:normal;font-variant-caps:normal;font-variant-numeric:normal;font-variant-east-asian:normal;fill:#ffffff"
         d="m 173.92521,89.934084 q 0,0.945336 -0.0868,1.118969 -0.10611,0.212219 -0.65595,0.212219 -0.0868,0 -0.38585,0 -0.28939,-0.0096 -0.49196,-0.0096 -0.19293,0 -0.58842,-0.01929 -0.38586,-0.01929 -0.57878,-0.01929 -0.15434,0 -1.38907,-1.852087 -1.23472,-1.852088 -1.28295,-1.861734 -0.20258,0.163987 -1.38907,1.94855 -1.13826,1.707394 -1.33119,1.765271 -0.13504,0.03858 -0.72347,0.03858 -1.97749,0 -1.97749,-0.202572 0,-0.202572 -0.0289,-0.578777 -0.0193,-0.376205 -0.0193,-0.559485 0,-1.19614 0.1447,-1.408358 0.01,-0.0096 1.59163,-2.112537 1.28296,-1.697747 1.28296,-1.938904 0,-0.241158 -1.28296,-1.909966 -0.81029,-1.032152 -1.61093,-2.073952 -0.0868,-0.125401 -0.10611,-0.41479 -0.01,-0.202572 0,-0.549839 0.0289,-0.41479 0.0289,-0.463021 0,-0.192926 -0.0386,-0.59807 -0.0289,-0.405145 -0.0289,-0.59807 0,-0.18328 0.33762,-0.18328 0.22186,0 0.65595,0.02894 0.43408,0.02894 0.6463,0.02894 0.19292,0 0.56913,-0.01929 0.3762,-0.01929 0.55948,-0.01929 0.15434,0 1.39872,1.881026 1.25401,1.87138 1.31189,1.87138 0.19293,-0.115755 1.418,-1.967843 1.16721,-1.784563 1.34084,-1.784563 h 2.29582 q 0.33762,0 0.33762,0.163987 v 2.344048 q 0,0.250803 -1.49518,2.189708 -1.48553,1.938904 -1.48553,2.054659 0,0.163987 1.3119,1.900319 1.5434,2.035367 1.61093,2.13183 0.13505,0.212218 0.13505,1.466236 z" />
      <path
         id="path48"
         style="font-style:normal;font-variant:normal;font-weight:normal;font-stretch:normal;font-size:19.7556px;font-family:'Berlin Sans FB Demi';-inkscape-font-specification:'Berlin Sans FB Demi, Normal';font-variant-ligatures:normal;font-variant-caps:normal;font-variant-numeric:normal;font-variant-east-asian:normal;fill:#ffffff"
         d="m 188.19208,90.975883 q 0,0.173633 -0.24116,0.241157 -0.28939,0.07717 -1.79421,0.07717 -1.37942,0 -1.77492,-0.07717 -0.32797,-0.06752 -0.41479,-0.434083 -0.32797,-1.389065 -0.51125,-1.485528 -0.15434,-0.06752 -2.58521,-0.06752 -1.63987,0 -1.74598,0.08682 -0.16398,0.154341 -0.36656,1.032153 -0.18327,0.800642 -0.44372,0.868166 -0.32798,0.07717 -2.19936,0.07717 -1.47588,0 -1.47588,-0.279743 0,-0.250803 2.18006,-6.163978 2.36334,-6.39549 2.56591,-7.032145 0.11576,-0.366559 0.2701,-0.366559 0.26045,0 0.80064,0.04823 0.54984,0.04823 0.81994,0.04823 0.26045,0 0.76205,-0.02894 0.51126,-0.03858 0.76206,-0.03858 0.18328,0 0.33762,0.318327 0.47267,1.012861 2.75884,6.945328 2.29582,5.971053 2.29582,6.231503 z m -6.83922,-8.787769 q -0.20258,0.424437 -0.68489,1.842441 -0.5209,1.504821 -0.5209,1.765271 0,0.173633 0.57878,0.192926 0.29903,0.01929 0.98392,0.01929 0.63665,0 0.70418,-0.15434 0.0193,-0.04823 0.0193,-0.135048 0,-0.318328 -0.44373,-1.755625 -0.43408,-1.389066 -0.63665,-1.774917 z" />
      <path
         id="path50"
         style="font-style:normal;font-variant:normal;font-weight:normal;font-stretch:normal;font-size:19.7556px;font-family:'Berlin Sans FB Demi';-inkscape-font-specification:'Berlin Sans FB Demi, Normal';font-variant-ligatures:normal;font-variant-caps:normal;font-variant-numeric:normal;font-variant-east-asian:normal;fill:#ffffff"
         d="m 202.07308,77.982332 q 0,1.099677 -0.0965,3.308677 -0.0868,2.199354 -0.0868,3.308677 v 6.356905 q 0,0.260449 -0.27974,0.260449 -0.23151,0 -0.70418,0.01929 -0.46302,0.01929 -0.69454,0.01929 -0.2508,0 -0.75241,-0.03858 -0.5016,-0.03858 -0.75241,-0.03858 -0.17363,0 -0.41479,-0.318327 -0.69453,-0.93569 -3.12539,-4.147905 -0.6656,-0.897105 -2.02573,-2.643083 -0.0386,-0.05788 -0.14469,-0.115755 -0.0772,0.06752 -0.0772,0.212218 0,1.11897 0.0579,3.356909 0.0675,2.237939 0.0675,3.356908 0,0.33762 -0.26045,0.33762 h -3.33761 q -0.27975,0 -0.27975,-0.299035 0,-1.041799 0.0965,-3.14469 0.10611,-2.102891 0.10611,-3.154336 0,-1.109324 -0.0965,-3.318324 -0.0868,-2.209 -0.0868,-3.308677 0,-0.212218 0.3762,-0.212218 0.55949,0 1.37942,-0.07717 0.19293,-0.01929 0.76206,-0.125401 0.48231,-0.08682 0.76205,-0.08682 0.11576,0 0.35692,0.327974 l 3.59806,4.929254 q 0.48232,0.665594 1.45659,1.94855 0.24116,0.299035 0.41479,0.299035 0.1254,0 0.1254,-0.752411 0,-1.01286 -0.11575,-3.048227 -0.10611,-2.035367 -0.10611,-3.057874 0,-0.356912 0.20257,-0.356912 0.57878,0 1.74598,-0.04823 1.1672,-0.04823 1.74598,-0.04823 0.18328,0 0.18328,0.299035 z" />
      <path
         id="path52"
         style="font-style:normal;font-variant:normal;font-weight:normal;font-stretch:normal;font-size:19.7556px;font-family:'Berlin Sans FB Demi';-inkscape-font-specification:'Berlin Sans FB Demi, Normal';font-variant-ligatures:normal;font-variant-caps:normal;font-variant-numeric:normal;font-variant-east-asian:normal;fill:#ffffff"
         d="m 216.45569,84.377821 q 0,2.836009 -1.82314,4.919608 -1.61094,1.861734 -4.52411,1.958196 -0.55949,0.01929 -3.07717,0.01929 -0.47267,0 -1.42765,-0.02894 -0.94534,-0.02894 -1.41801,-0.02894 -0.27974,0 -0.27974,-0.221864 0,-1.061092 0.0772,-3.183276 0.0868,-2.13183 0.0868,-3.192921 0,-1.109324 -0.0868,-3.318324 -0.0772,-2.218646 -0.0772,-3.318323 0,-0.202572 0.27974,-0.241157 0.68489,-0.07717 2.24759,-0.07717 2.97106,0 3.84887,0.08682 2.28617,0.231511 3.57877,1.157555 1.21543,0.868166 1.91961,2.430864 0.67524,1.475883 0.67524,3.038581 z m -3.69453,0 q 0,-1.630222 -0.97427,-2.662375 -0.98392,-1.070738 -2.6045,-1.070738 -1.48553,0 -1.48553,0.395497 0,0.569131 -0.0193,1.71704 -0.0193,1.138262 -0.0193,1.707393 0,0.559485 0.0193,1.688101 0.0193,1.118969 0.0193,1.6881 0,0.414791 1.54341,0.414791 1.66881,0 2.62379,-1.109324 0.8971,-1.051445 0.8971,-2.768485 z" />
      <path
         id="path54"
         style="font-style:normal;font-variant:normal;font-weight:normal;font-stretch:normal;font-size:19.7556px;font-family:'Berlin Sans FB Demi';-inkscape-font-specification:'Berlin Sans FB Demi, Normal';font-variant-ligatures:normal;font-variant-caps:normal;font-variant-numeric:normal;font-variant-east-asian:normal;fill:#ffffff"
         d="m 229.44925,91.120577 q 0,0.06752 -0.19293,0.09646 -0.36655,0.05788 -1.84244,0.05788 -1.26366,0 -1.71704,-0.05788 -0.21221,-0.02894 -0.24115,-0.04823 -0.0579,-0.02894 -0.13505,-0.192926 -0.1447,-0.376205 -0.42444,-1.118969 -0.3762,-0.964629 -1.17685,-2.845656 -0.17363,-0.376205 -0.80064,-0.41479 0.28939,0.01929 -0.99356,0.01929 -0.1447,0 -0.1447,0.491961 0,0.655948 0.11576,1.958197 0.1254,1.302249 0.1254,1.958197 0,0.163986 -0.0868,0.192925 -0.13505,0.0096 -0.27009,0.01929 -0.56914,0.03858 -1.77492,0.03858 -1.37942,0 -1.65916,-0.05788 -0.27975,-0.05788 -0.27975,-0.299035 0,-1.061091 0.0965,-3.202568 0.10611,-2.141476 0.10611,-3.212214 0,-4.08038 -0.18328,-6.366551 l -0.01,-0.135048 q -0.01,-0.163987 0.29904,-0.221864 0.31832,-0.05788 2.95176,-0.115756 1.78456,-0.03859 2.84566,-0.03859 2.19935,0 3.58841,0.993568 1.57235,1.118969 1.57235,3.231507 0,1.408358 -0.40514,2.247585 -0.40515,0.839227 -1.49518,1.630223 -0.22186,0.15434 -0.22186,0.289389 0,-0.0096 1.17684,2.421218 1.17685,2.430865 1.17685,2.681668 z m -4.05144,-8.652721 q 0,-1.176847 -0.7717,-1.630223 -0.59807,-0.347266 -1.87138,-0.347266 -0.9164,0 -0.97428,0.279742 -0.0579,0.327974 -0.0579,1.890673 0,0.221865 0.01,0.655948 0.01,0.434083 0.01,0.646301 0,0.04823 0.30868,0.09646 0.58842,0.08682 1.23472,0.08682 2.11254,0 2.11254,-1.678454 z" />
      <path
         id="path56"
         style="font-style:normal;font-variant:normal;font-weight:normal;font-stretch:normal;font-size:19.7556px;font-family:'Berlin Sans FB Demi';-inkscape-font-specification:'Berlin Sans FB Demi, Normal';font-variant-ligatures:normal;font-variant-caps:normal;font-variant-numeric:normal;font-variant-east-asian:normal;fill:#ffffff"
         d="m 240.40744,88.217044 q 0,0.414791 -0.16399,1.524114 -0.17363,1.205786 -0.30868,1.437297 -0.11575,0.18328 -0.31833,0.18328 -0.0868,0 -0.28938,-0.02894 -0.70418,-0.09646 -4.10932,-0.09646 -0.74277,0 -2.209,-0.0096 -1.46624,-0.0096 -2.19936,-0.0096 -0.31833,0 -0.31833,-0.279742 0,-1.080384 0.11576,-3.241153 0.1254,-2.170415 0.1254,-3.2508 0,-1.099677 -0.11575,-4.099672 -0.0289,-0.771704 -0.10611,-2.305464 l -0.01,-0.135048 q -0.0193,-0.221864 0.24116,-0.221864 0.71382,0 2.14147,0.03858 1.4373,0.03859 2.15113,0.03859 0.70418,0 2.12218,-0.03859 1.41801,-0.03858 2.12218,-0.03858 0.50161,0 0.57878,0.376205 0.0482,0.221865 0.1447,1.350481 0.10611,1.118969 0.10611,1.360126 0,0.202572 -0.19293,0.202572 -0.0579,0 -0.20257,-0.0096 -2.56592,-0.212218 -4.61093,-0.212218 -0.51125,0 -0.62701,0.241157 -0.0482,0.115755 -0.0482,0.742764 0,0.655948 0.19293,0.868166 0.16398,0.18328 0.62701,0.18328 0.0965,0 0.3762,-0.0096 0.27974,-0.01929 0.46302,-0.01929 1.21543,0 2.45981,-0.06752 0.10611,-0.0096 0.53054,-0.04823 0.32798,-0.03859 0.5209,-0.03859 0.23151,0 0.23151,0.221865 0,-0.202572 -0.17363,1.475882 -0.0772,0.771703 -0.0772,1.543406 0,0.192926 -0.27974,0.192926 0,0 -0.86817,-0.09646 -0.54984,-0.05788 -2.50803,-0.05788 h -1.02251 q -0.3955,0 -0.46302,0.192926 -0.01,0.04823 -0.01,0.59807 0,0.733118 0.0965,0.945337 0.16399,0.366559 1.23473,0.434083 -0.0193,0 1.40836,0 0.51125,0 1.51446,-0.08682 1.01286,-0.09646 1.51447,-0.09646 0.21222,0 0.21222,0.347266 z" />
    </g>
  </g>
</svg>
